<svg xmlns="http://www.w3.org/2000/svg" xmlns:xlink="http://www.w3.org/1999/xlink" viewBox="0 0 394.23 394.23"><defs><style>.cls-1{isolation:isolate;}.cls-16,.cls-2{opacity:0.83;}.cls-11,.cls-12,.cls-14,.cls-15,.cls-16,.cls-2{mix-blend-mode:multiply;}.cls-2{fill:url(#radial-gradient);}.cls-3{fill:#fcc103;}.cls-19,.cls-24,.cls-4{fill:#f97f06;}.cls-5{fill:#35bae9;}.cls-21,.cls-23,.cls-6{fill:#1891b2;}.cls-7{fill:#42dabf;}.cls-18,.cls-22,.cls-8{fill:#1aa086;}.cls-9{fill:#ffae45;}.cls-10{fill:#f9327a;}.cls-11,.cls-12,.cls-14,.cls-15{opacity:0.08;}.cls-11{fill:url(#linear-gradient);}.cls-12{fill:url(#linear-gradient-2);}.cls-13,.cls-20,.cls-25{fill:#ce2469;}.cls-14{fill:url(#linear-gradient-3);}.cls-15{fill:url(#linear-gradient-4);}.cls-16{fill:url(#radial-gradient-2);}.cls-17{fill:#fff;}.cls-18{font-size:24.8px;}.cls-18,.cls-19,.cls-20,.cls-21,.cls-22,.cls-23,.cls-24,.cls-25,.cls-27{font-family:OpenSans-Bold, Open Sans;font-weight:700;}.cls-19{font-size:16.46px;}.cls-20{font-size:15.82px;}.cls-21{font-size:21.8px;}.cls-22{font-size:20.16px;}.cls-23{font-size:18.69px;}.cls-24{font-size:14.36px;}.cls-25{font-size:10.14px;}.cls-26,.cls-27{fill:#c1c1c1;}.cls-27{font-size:11.55px;}.cls-28{fill:#093b82;}</style><radialGradient id="radial-gradient" cx="542.34" cy="545.86" r="135.43" gradientTransform="translate(4.16 -2.45) rotate(0.54)" gradientUnits="userSpaceOnUse"><stop offset="0"/><stop offset="1" stop-color="#fff"/></radialGradient><linearGradient id="linear-gradient" x1="512.05" y1="451.11" x2="532.82" y2="451.11" gradientTransform="translate(4.16 -2.45) rotate(0.54)" gradientUnits="userSpaceOnUse"><stop offset="0" stop-color="#fff"/><stop offset="1"/></linearGradient><linearGradient id="linear-gradient-2" x1="461.96" y1="545.62" x2="461.96" y2="529.33" xlink:href="#linear-gradient"/><linearGradient id="linear-gradient-3" x1="532.82" y1="592.71" x2="557.28" y2="592.71" gradientTransform="translate(4.16 -2.45) rotate(0.54)" xlink:href="#radial-gradient"/><linearGradient id="linear-gradient-4" x1="622.14" y1="532.7" x2="622.14" y2="509.62" gradientTransform="translate(4.16 -2.45) rotate(0.54)" gradientUnits="userSpaceOnUse"><stop offset="0"/><stop offset="0.1" stop-color="#1d1d1d"/><stop offset="0.43" stop-color="#7c7c7c"/><stop offset="0.71" stop-color="#c3c3c3"/><stop offset="0.9" stop-color="#eee"/><stop offset="1" stop-color="#fff"/></linearGradient><radialGradient id="radial-gradient-2" cx="545.97" cy="542.16" r="61.62" xlink:href="#radial-gradient"/></defs><g class="cls-1"><g id="Layer_1" data-name="Layer 1"><path class="cls-2" d="M638,453.71a135.46,135.46,0,1,0,38.75,96.14A135.05,135.05,0,0,0,638,453.71Zm-96.68,94.85Z" transform="translate(-337.82 -310.77)"/><path class="cls-3" d="M390.24,530.27A141.71,141.71,0,0,0,530.6,673.33L532,531.62Z" transform="translate(-337.82 -310.77)"/><path class="cls-4" d="M446,530.8a86,86,0,0,0,85.17,86.81l.82-86Z" transform="translate(-337.82 -310.77)"/><path class="cls-5" d="M422.84,420.41a155.3,155.3,0,0,0-46.68,109.72L532,531.62h0l1.48-155.8A155.28,155.28,0,0,0,422.84,420.41Z" transform="translate(-337.82 -310.77)"/><path class="cls-6" d="M471.72,470.23A85.71,85.71,0,0,0,446,530.8l86,.82h0l.82-86A85.77,85.77,0,0,0,471.72,470.23Z" transform="translate(-337.82 -310.77)"/><path class="cls-7" d="M659.47,406.5A178.07,178.07,0,0,0,533.65,353L532,531.62h0l178.64,1.7A178.1,178.1,0,0,0,659.47,406.5Z" transform="translate(-337.82 -310.77)"/><path class="cls-8" d="M593.34,471.39a85.76,85.76,0,0,0-60.57-25.77l-.82,86h0l86,.82A85.72,85.72,0,0,0,593.34,471.39Z" transform="translate(-337.82 -310.77)"/><rect class="cls-9" x="194.13" y="220.85"/><polygon class="cls-9" points="194.13 220.85 194.13 220.85 194.13 220.85 194.13 220.85"/><polygon class="cls-9" points="194.13 220.85 194.13 220.85 194.13 220.85 194.13 220.85"/><path class="cls-10" d="M532,531.62h0L530.74,659A127.41,127.41,0,0,0,659.35,532.83Z" transform="translate(-337.82 -310.77)"/><path class="cls-11" d="M512.65,377l-1.47,154.41,20.77.2,1.48-155.8A158.46,158.46,0,0,0,512.65,377Z" transform="translate(-337.82 -310.77)"/><path class="cls-12" d="M531.82,545.46l.13-13.84-141.71-1.35c-.05,4.67.14,9.29.54,13.85Z" transform="translate(-337.82 -310.77)"/><rect class="cls-9" x="194.13" y="220.85"/><polygon class="cls-9" points="194.13 220.85 194.13 220.85 194.13 220.85 194.13 220.85"/><polygon class="cls-9" points="194.13 220.85 194.13 220.85 194.13 220.85 194.13 220.85"/><path class="cls-13" d="M532,531.62h0l-.82,86a86,86,0,0,0,86.81-85.17Z" transform="translate(-337.82 -310.77)"/><path class="cls-14" d="M556.42,531.85,532,531.62,530.74,659a128.29,128.29,0,0,0,24.48-2.12Z" transform="translate(-337.82 -310.77)"/><path class="cls-15" d="M532.17,508.54,532,531.62h0l178.64,1.7a180,180,0,0,0-1.26-23.1Z" transform="translate(-337.82 -310.77)"/><path class="cls-16" d="M589,501.74a61.61,61.61,0,1,0,17.64,43.74A61.46,61.46,0,0,0,589,501.74ZM545,544.9Z" transform="translate(-337.82 -310.77)"/><path class="cls-17" d="M575.94,488.46a61.64,61.64,0,1,0,17.63,43.74A61.44,61.44,0,0,0,575.94,488.46Zm-44,43.16Z" transform="translate(-337.82 -310.77)"/><text class="cls-18" transform="translate(259.68 144.03)">75%</text><text class="cls-19" transform="translate(101.22 304.84)">20%</text><text class="cls-20" transform="translate(249.91 304.81)">5%</text><text class="cls-21" transform="translate(95.92 142.27)">50%</text><text class="cls-22" transform="translate(208.29 92.59)">Fee</text><text class="cls-23" transform="translate(46.3 208.54)">Cost</text><text class="cls-24" transform="translate(119.79 336.95)">Academic</text><text class="cls-25" transform="translate(282.63 239.61)">Course</text><path class="cls-26" d="M539.84,541.05H523.59a1.47,1.47,0,0,0,.26,2.92h2.75a2.55,2.55,0,0,0,2.54,2.3h4.73a2.56,2.56,0,0,0,2.55-2.3h3.16a1.47,1.47,0,0,0,.26-2.92Z" transform="translate(-337.82 -310.77)"/><path class="cls-26" d="M547.83,519a16.11,16.11,0,1,0-26.57,12.25,17.09,17.09,0,0,1,2.87,5.13h-.36a1.49,1.49,0,0,0-.17,3h16.25a1.49,1.49,0,0,0-.19-3h-.22a17.15,17.15,0,0,1,3.32-5.65A16.13,16.13,0,0,0,547.83,519Zm-7.72-2.34-9,9a1.22,1.22,0,0,1-1.73,0l-4-4a1.23,1.23,0,0,1,1.73-1.74l3.16,3.16,8.14-8.14a1.23,1.23,0,0,1,1.74,1.74Z" transform="translate(-337.82 -310.77)"/><path class="cls-26" d="M531.72,487.39h0A1.63,1.63,0,0,0,530.1,489v3.42a1.63,1.63,0,0,0,1.62,1.62h0a1.63,1.63,0,0,0,1.62-1.62V489A1.63,1.63,0,0,0,531.72,487.39Z" transform="translate(-337.82 -310.77)"/><path class="cls-26" d="M516.14,491.1h0a1.63,1.63,0,0,0-.59,2.21l1.72,3a1.61,1.61,0,0,0,2.2.6h0a1.63,1.63,0,0,0,.6-2.21l-1.72-3A1.63,1.63,0,0,0,516.14,491.1Z" transform="translate(-337.82 -310.77)"/><path class="cls-26" d="M504.51,502.1h0a1.62,1.62,0,0,0,.59,2.21l3,1.71a1.62,1.62,0,0,0,2.21-.59h0a1.63,1.63,0,0,0-.6-2.21l-3-1.71A1.62,1.62,0,0,0,504.51,502.1Z" transform="translate(-337.82 -310.77)"/><path class="cls-26" d="M499.93,517.44h0a1.63,1.63,0,0,0,1.62,1.62H505a1.63,1.63,0,0,0,1.62-1.62h0a1.62,1.62,0,0,0-1.62-1.61h-3.42A1.62,1.62,0,0,0,499.93,517.44Z" transform="translate(-337.82 -310.77)"/><path class="cls-26" d="M503.64,533h0a1.62,1.62,0,0,0,2.21.59l3-1.71a1.63,1.63,0,0,0,.6-2.21h0a1.62,1.62,0,0,0-2.21-.59l-3,1.71A1.62,1.62,0,0,0,503.64,533Z" transform="translate(-337.82 -310.77)"/><path class="cls-26" d="M557.19,534.53h0a1.62,1.62,0,0,0-.59-2.21l-3-1.72a1.63,1.63,0,0,0-2.21.6h0a1.62,1.62,0,0,0,.59,2.21l3,1.71A1.61,1.61,0,0,0,557.19,534.53Z" transform="translate(-337.82 -310.77)"/><path class="cls-26" d="M561.77,519.18h0a1.63,1.63,0,0,0-1.62-1.62h-3.42a1.63,1.63,0,0,0-1.62,1.62h0a1.63,1.63,0,0,0,1.62,1.62h3.42A1.63,1.63,0,0,0,561.77,519.18Z" transform="translate(-337.82 -310.77)"/><path class="cls-26" d="M558.06,503.61h0a1.63,1.63,0,0,0-2.21-.6l-3,1.72a1.61,1.61,0,0,0-.59,2.2h0a1.63,1.63,0,0,0,2.21.6l3-1.72A1.61,1.61,0,0,0,558.06,503.61Z" transform="translate(-337.82 -310.77)"/><path class="cls-26" d="M547.06,492h0a1.61,1.61,0,0,0-2.2.59l-1.72,3a1.63,1.63,0,0,0,.6,2.21h0a1.62,1.62,0,0,0,2.2-.6l1.72-3A1.63,1.63,0,0,0,547.06,492Z" transform="translate(-337.82 -310.77)"/><text class="cls-27" transform="translate(177.67 249.62)"><tspan xml:space="preserve">Best          </tspan></text><text class="cls-27" transform="translate(171.71 263.89)">Match</text><path class="cls-28" d="M693.46,321.29h-151V310.77h-160a44.66,44.66,0,0,0-44.61,44.61V512.1h10.53V666.4A38.65,38.65,0,0,0,387,705H693.46a38.65,38.65,0,0,0,38.6-38.6V359.89A38.65,38.65,0,0,0,693.46,321.29ZM725,666.4A31.61,31.61,0,0,1,693.46,698H387a31.61,31.61,0,0,1-31.58-31.58V512.1h10.52V355.38a16.56,16.56,0,0,1,16.54-16.54h160V328.31h151A31.62,31.62,0,0,1,725,359.89Z" transform="translate(-337.82 -310.77)"/></g></g></svg>